<svg width="20" height="20" viewBox="0 0 20 20" fill="none" xmlns="http://www.w3.org/2000/svg">
<path d="M11.1667 1.66675H4.50004C4.05801 1.66675 3.63409 1.84235 3.32153 2.15491C3.00897 2.46747 2.83337 2.89139 2.83337 3.33342V16.6668C2.83337 17.1088 3.00897 17.5327 3.32153 17.8453C3.63409 18.1578 4.05801 18.3334 4.50004 18.3334H14.5C14.9421 18.3334 15.366 18.1578 15.6786 17.8453C15.9911 17.5327 16.1667 17.1088 16.1667 16.6668V6.66675M11.1667 1.66675C11.4305 1.66632 11.6918 1.71809 11.9355 1.81906C12.1792 1.92003 12.4005 2.06822 12.5867 2.25508L15.5767 5.24508C15.7641 5.43134 15.9127 5.65287 16.014 5.89689C16.1152 6.1409 16.1671 6.40256 16.1667 6.66675M11.1667 1.66675V5.83342C11.1667 6.05443 11.2545 6.26639 11.4108 6.42267C11.5671 6.57895 11.779 6.66675 12 6.66675L16.1667 6.66675M7.83337 7.50008H6.16671M12.8334 10.8334H6.16671M12.8334 14.1668H6.16671" stroke="#FAF8F3" stroke-width="1.5" stroke-linecap="round" stroke-linejoin="round"/>
</svg>
