<svg width="14" height="14" viewBox="0 0 14 14" fill="none" xmlns="http://www.w3.org/2000/svg">
<path d="M7.25 1C6.47645 1 5.73459 1.30729 5.18761 1.85427C4.64062 2.40125 4.33333 3.14312 4.33333 3.91667C4.33333 4.69021 4.64062 5.43208 5.18761 5.97906C5.73459 6.52604 6.47645 6.83333 7.25 6.83333C8.02355 6.83333 8.76541 6.52604 9.31239 5.97906C9.85938 5.43208 10.1667 4.69021 10.1667 3.91667C10.1667 3.14312 9.85938 2.40125 9.31239 1.85427C8.76541 1.30729 8.02355 1 7.25 1ZM2.58333 12.6667H11.9167C12.2375 12.6667 12.5 12.4042 12.5 12.0833V11.5C12.5 9.24833 10.6683 7.41667 8.41667 7.41667H6.08333C3.83167 7.41667 2 9.24833 2 11.5V12.0833C2 12.4042 2.2625 12.6667 2.58333 12.6667Z" fill="#626F44"/>
</svg>
